<svg xmlns="http://www.w3.org/2000/svg" viewBox="0 0 10 10"><defs><style>.a{fill:#80a346;}.b{fill:#fff;}</style></defs><g transform="translate(-6.2 -18.5)"><circle class="a" cx="5" cy="5" r="5" transform="translate(6.2 18.5)"/><path class="b" d="M9.8,20.4a2.768,2.768,0,0,1,1.3-.3,2.86,2.86,0,0,1,1.7.5,1.579,1.579,0,0,1,.7,1.5,1.689,1.689,0,0,1-.3,1,1.441,1.441,0,0,1-.7.6l-.3.2a.55.55,0,0,0-.3.5,4.331,4.331,0,0,0-.1.5H10.6c0-.5.1-.9.1-1.1a3.191,3.191,0,0,1,.6-.7l.3-.3.3-.3c.1-.2.2-.3.2-.5a1.421,1.421,0,0,0-.2-.6.779.779,0,0,0-.7-.3c-.4,0-.6.1-.7.3a1.854,1.854,0,0,0-.2.7H8.9A2.588,2.588,0,0,1,9.8,20.4Zm.8,5.1H12v1.3H10.6Z"/></g></svg>